{"title":"Iron Man 3 2013 R6 LiNE AAC x264-SSDD","uid":8467693,"size":637597378,"categoryP":"video","categoryS":"movies","magnet":"?xt=urn:btih:2afca79f5878e3c7aa28ac0133a3e0e73f4e52df&amp;dn=Iron+Man+3+2013+R6+LiNE+AAC+x264-SSDD&amp;tr=udp%3A%2F%2Ftracker.openbittorrent.com%3A80&amp;tr=udp%3A%2F%2Fopen.demonii.com%3A1337&amp;tr=udp%3A%2F%2Ftracker.coppersurfer.tk%3A6969&amp;tr=udp%3A%2F%2Fexodus.desync.com%3A6969","seeders":3,"leechers":0,"uploader":"R0thschild","files":3,"time":1368401958,"description":"--------------------------------------------\n &lt;a href=&quot;\nhttp://publichash.com/&quot; rel=&quot;nofollow&quot; target=&quot;_NEW&quot;&gt;\nhttp://publichash.com/&lt;/a&gt;\n\n--------------------------------------------\n\nIMDB Link - http://www.imdb.com/title/tt1300854/\n\nSource - Iron Man 3 2013 R6 LiNE READNFO XViD - JUSTiCE\n\nScreens and nfo: &lt;a href=&quot;\nhttp://publichash.com/index.php?page=torrent-details&amp;id=2afca79f5878e3c7aa28ac0133a3e0e73f4e52df&quot; rel=&quot;nofollow&quot; target=&quot;_NEW&quot;&gt;\nhttp://publichash.com/index.php?page=torrent-details&amp;id=2afca79f5878e3c7aa28ac0133a3e0e73f4e52df&lt;/a&gt;\n\nNOTES - Enjoy.\n\nGeneral\nComplete name                            : Iron Man 3 2013 R6 LiNE AAC x264-SSDD.mp4\nFormat                                   : MPEG-4\nFormat profile                           : Base Media\nCodec ID                                 : isom\nFile size                                : 600 MiB\nDuration                                 : 2h 8mn\nOverall bit rate mode                    : Variable\nOverall bit rate                         : 652 Kbps\n\nVideo\nID                                       : 1\nFormat                                   : AVC\nFormat/Info                              : Advanced Video Codec\nFormat profile                           : &lt;a class=&quot;__cf_email__&quot; href=&quot;/cdn-cgi/l/email-protection&quot; data-cfemail=&quot;87cfeee0efc7cbb3a9b6&quot;&gt;[email&amp;#160;protected]&lt;/a&gt;&lt;script data-cfhash='f9e31' type=&quot;text/javascript&quot;&gt;\n/* &lt;![CDATA[ */!function(){try{var t=&quot;currentScript&quot;in document?document.currentScript:function(){for(var t=document.getElementsByTagName(&quot;script&quot;),e=t.length;e--;)if(t[e].getAttribute(&quot;data-cfhash&quot;))return t[e]}();if(t&amp;&amp;t.previousSibling){var e,r,n,i,c=t.previousSibling,a=c.getAttribute(&quot;data-cfemail&quot;);if(a){for(e=&quot;&quot;,r=parseInt(a.substr(0,2),16),n=2;a.length-n;n+=2)i=parseInt(a.substr(n,2),16)^r,e+=String.fromCharCode(i);e=document.createTextNode(e),c.parentNode.replaceChild(e,c)}t.parentNode.removeChild(t);}}catch(u){}}()/* ]]&gt; */&lt;/script&gt;\nFormat settings, CABAC                   : Yes\nFormat settings, ReFrames                : 4 frames\nCodec ID                                 : avc1\nCodec ID/Info                            : Advanced Video Coding\nDuration                                 : 2h 8mn\nBit rate                                 : 584 Kbps\nMaximum bit rate                         : 2 050 Kbps\nWidth                                    : 720 pixels\nHeight                                   : 304 pixels\nDisplay aspect ratio                     : 2.35:1\nFrame rate mode                          : Constant\nFrame rate                               : 29.970 fps\nColor space                              : YUV\nChroma subsampling                       : 4:2:0\nBit depth                                : 8 bits\nScan type                                : Progressive\nBits/(Pixel*Frame)                       : 0.089\nStream size                              : 538 MiB (90%)\nWriting library                          : x264 core 130 r2273 b3065e6\n\nAudio\nID                                       : 2\nFormat                                   : AAC\nFormat/Info                              : Advanced Audio Codec\nFormat profile                           : LC\nCodec ID                                 : 40\nDuration                                 : 2h 8mn\nBit rate mode                            : Variable\nBit rate                                 : 64.0 Kbps\nMaximum bit rate                         : 68.3 Kbps\nChannel(s)                               : 2 channels\nChannel positions                        : Front: L R\nSampling rate                            : 48.0 KHz\nCompression mode                         : Lossy\nStream size                              : 59.0 MiB (10%)\n\n--------------------------------------------","torrent":{"xt":"urn:btih:2afca79f5878e3c7aa28ac0133a3e0e73f4e52df","amp;dn":"Iron+Man+3+2013+R6+LiNE+AAC+x264-SSDD","amp;tr":["udp%3A%2F%2Ftracker.openbittorrent.com%3A80","udp%3A%2F%2Fopen.demonii.com%3A1337","udp%3A%2F%2Ftracker.coppersurfer.tk%3A6969","udp%3A%2F%2Fexodus.desync.com%3A6969"],"infoHash":"2afca79f5878e3c7aa28ac0133a3e0e73f4e52df","infoHashBuffer":{"type":"Buffer","data":[42,252,167,159,88,120,227,199,170,40,172,1,51,163,224,231,63,78,82,223]},"announce":[],"urlList":[]}}